<svg width="950" height="151" viewBox="0 0 950 151" fill="none" xmlns="http://www.w3.org/2000/svg">
<path d="M33.9286 150.069H0V0H33.9286V11.6775H11.8218V138.391H33.9286V150.069Z" fill="#9CA2FA"/>
<path d="M211.401 150.069H177.472V138.391H199.581V11.6775H177.472V0H211.401V150.069Z" fill="#9CA2FA"/>
<path d="M56.4388 25.4668L53.1765 38.4959L82.5377 67.8571H37.8746L34.9072 79.6016H91.9986L95.9134 64.5948L56.4388 25.4668Z" fill="#9CA2FA"/>
<path d="M155.615 121.992L158.877 108.963L129.516 79.6019L174.179 79.6019L177.146 67.8574L120.055 67.8574L116.14 82.8642L155.615 121.992Z" fill="#9CA2FA"/>
<path d="M112.878 22.8369L86.1265 127.233H98.5234L125.275 22.8369H112.878Z" fill="#9CA2FA"/>
<path d="M936.154 0H949.689V120.969H936.154V110.31H935.815C930.74 116.908 922.619 123.337 908.746 123.337C887.09 123.337 869.833 106.249 869.833 77.826C869.833 49.4026 887.09 32.3147 908.746 32.3147C922.619 32.3147 930.74 38.4054 935.815 45.8497H936.154V0ZM910.099 111.494C926.172 111.494 936.154 98.1285 936.154 77.826C936.154 57.5236 926.172 44.1578 910.099 44.1578C892.334 44.1578 883.368 60.9073 883.368 77.826C883.368 94.7447 892.334 111.494 910.099 111.494Z" fill="#EDE7E2"/>
<path d="M827.647 32.3125C843.381 32.3125 856.578 40.941 856.578 60.7359V120.967H843.043V64.1197C843.043 52.9533 837.798 44.1556 824.263 44.1556C809.036 44.1556 798.885 53.7993 798.885 67.165V120.967H785.35V34.6811H798.885V45.0015H799.223C803.791 38.9108 812.928 32.3125 827.647 32.3125Z" fill="#EDE7E2"/>
<path d="M758.285 17.9343C754.563 17.9343 749.826 15.0582 749.826 9.81337C749.826 4.56857 754.563 1.69238 758.285 1.69238C762.177 1.69238 766.745 4.56857 766.745 9.81337C766.745 15.0582 762.177 17.9343 758.285 17.9343ZM751.518 34.6839H765.053V120.969H751.518V34.6839Z" fill="#EDE7E2"/>
<path d="M705.843 32.3125C723.269 32.3125 731.729 42.6329 731.729 60.7359V120.967H718.194V64.1197C718.194 52.9533 715.994 44.1556 702.459 44.1556C688.925 44.1556 680.465 53.7993 680.465 67.165V120.967H666.93V64.1197C666.93 52.9533 664.731 44.1556 651.196 44.1556C637.661 44.1556 629.201 53.7993 629.201 67.165V120.967H615.667V34.6811H629.201V45.0015H629.54C634.108 38.9108 641.552 32.3125 654.58 32.3125C666.93 32.3125 674.036 37.5573 677.589 47.201H677.927C683.849 39.08 692.816 32.3125 705.843 32.3125Z" fill="#EDE7E2"/>
<path d="M532.894 0H546.429V71.7353L586.019 34.6833H602.937L569.269 66.6597L606.49 120.969H590.418L559.795 74.6115L546.429 86.9621V120.969H532.894V0Z" fill="#EDE7E2"/>
<path d="M506.408 65.8115C505.731 56.3371 499.302 44.1556 482.045 44.1556C461.573 44.1556 453.791 61.5819 453.791 77.8238C453.791 94.0658 461.573 111.492 482.045 111.492C499.471 111.492 505.731 99.4798 506.408 89.1593H519.943C518.759 108.785 503.363 123.335 482.045 123.335C456.836 123.335 440.256 104.894 440.256 77.8238C440.256 50.7539 456.836 32.3125 482.045 32.3125C503.363 32.3125 517.913 46.5242 519.943 65.8115H506.408Z" fill="#EDE7E2"/>
<path d="M411.699 56.6754C411.699 49.908 407.977 44.1556 394.104 44.1556C377.693 44.1556 372.279 48.8928 371.433 61.4127H357.898C358.744 44.8323 369.064 32.3125 394.104 32.3125C410.515 32.3125 425.234 38.7416 425.234 59.5516V101.51C425.234 108.277 426.419 112 435.047 110.984V120.459C431.494 121.643 429.633 121.812 427.095 121.812C418.974 121.812 414.068 119.613 411.699 110.139H411.361C405.947 118.26 396.303 123.335 382.092 123.335C364.665 123.335 353.668 113.353 353.668 98.803C353.668 79.1773 368.218 74.1017 390.551 69.872C405.101 67.165 411.699 65.304 411.699 56.6754ZM383.445 111.492C399.518 111.492 411.699 104.217 411.699 87.6367V73.2558C409.162 75.7936 400.871 78.1622 391.735 80.0232C374.986 83.5762 367.203 87.8059 367.203 98.1263C367.203 106.586 372.279 111.492 383.445 111.492Z" fill="#EDE7E2"/>
<path d="M306.185 32.3125C327.503 32.3125 344.76 49.4004 344.76 77.8238C344.76 106.247 327.503 123.335 306.185 123.335C291.974 123.335 283.853 117.244 278.777 109.8H278.439V150.067H264.904V34.6811H278.439V45.3399H278.777C283.853 38.7416 291.974 32.3125 306.185 32.3125ZM304.494 111.492C322.258 111.492 331.225 94.7425 331.225 77.8238C331.225 60.9051 322.258 44.1556 304.494 44.1556C288.421 44.1556 278.439 57.5214 278.439 77.8238C278.439 98.1263 288.421 111.492 304.494 111.492Z" fill="#EDE7E2"/>
</svg>
